# AST/ASF file generated using VICON BodyLanguage
# -----------------------------------------------
:version 1.10
:name VICON
:units
  mass 1.0
  length 0.45
  angle deg
:documentation
   .ast/.asf automatically generated from VICON data using
   VICON BodyBuilder and BodyLanguage model FoxedUp or BRILLIANT.MOD
:root
   order TX TY TZ RX RY RZ
   axis XYZ
   position 0 0 0  
   orientation 0 0 0 
:bonedata
  begin
     id 1 
     name lhipjoint
     direction 0.627457 -0.725269 0.283342 
     length 2.53237 
     axis 0 0 0  XYZ
  end
  begin
     id 2 
     name lfemur
     direction 0.34202 -0.939693 0  
     length 7.32496  
     axis 0 0 20  XYZ
    dof rx ry rz
    limits (-160.0 20.0)
           (-70.0 70.0)
           (-60.0 70.0)
  end
  begin
     id 3 
     name ltibia
     direction 0.34202 -0.939693 0   
     length 7.69674   
     axis 0 0 20   XYZ
    dof rx
    limits (-10.0 170.0)
  end
  begin
     id 4 
     name lfoot
     direction 0.127289 -0.349722 0.928166   
     length 1.8612   
     axis -90 7.62852e-016 20   XYZ
    dof rx rz
    limits (-45.0 90.0)
           (-70.0 20.0)
  end
  begin
     id 5 
     name ltoes
     direction 1.53561e-011 -4.21864e-011 1   
     length 0.925608   
     axis -90 7.62852e-016 20   XYZ
    dof rx
    limits (-90.0 20.0)
  end
  begin
     id 6 
     name rhipjoint
     direction -0.609094 -0.738725 0.288599   
     length 2.48624  
     axis 0 0 0  XYZ 
  end
  begin
     id 7 
     name rfemur
     direction -0.34202 -0.939693 0   
     length 7.44259   
     axis 0 0 -20   XYZ
    dof rx ry rz
    limits (-160.0 20.0)
           (-70.0 70.0)
           (-70.0 60.0)
  end
  begin
     id 8 
     name rtibia
     direction -0.34202 -0.939693 0   
     length 7.7781   
     axis 0 0 -20   XYZ
    dof rx
    limits (-10.0 170.0)
 end
 begin
     id 9 
     name rfoot
     direction -0.107015 -0.294021 0.949789   
     length 2.14741  
     axis -90 -7.62852e-016 -20   XYZ
    dof rx rz
    limits (-45.0 90.0)
           (-20.0 70.0)
  end
  begin
     id 10 
     name rtoes
     direction -1.53497e-011 -4.21924e-011 1   
     length 1.0706   
     axis -90 -7.62852e-016 -20   XYZ
    dof rx
    limits (-90.0 20.0)
  end
  begin
     id 11 
     name lowerback
     direction -0.0142066 0.998112 -0.0597545   
     length 1.86627   
     axis 0 0 0   XYZ
    dof rx ry rz
    limits (-20.0 45.0)
           (-30.0 30.0)
           (-30.0 30.0)
  end
  begin
     id 12 
     name upperback
     direction 0.00547294 0.999744 0.0219437   
     length 1.86272   
     axis 0 0 0   XYZ
    dof rx ry rz
    limits (-20.0 45.0)
           (-30.0 30.0)
           (-30.0 30.0)
  end
  begin
     id 13 
     name thorax
     direction 0.0116162 0.998704 0.0495538   
     length 1.8703   
     axis 0 0 0   XYZ
    dof rx ry rz
    limits (-20.0 45.0)
           (-30.0 30.0)
           (-30.0 30.0)
  end
  begin
     id 14 
     name lowerneck
     direction -0.0106574 0.998739 0.0490586   
     length 1.8074   
     axis 0 0 0   XYZ
    dof rx ry rz
    limits (-20.0 45.0)
           (-30.0 30.0)
           (-30.0 30.0)
  end
  begin
     id 15 
     name upperneck
     direction 0.030527 0.976587 -0.212944   
     length 1.80681   
     axis 0 0 0   XYZ
    dof rx ry rz
    limits (-20.0 45.0)
           (-30.0 30.0)
           (-30.0 30.0)
  end
  begin
     id 16
     name head
     direction 0.00869225 0.997035 -0.0764531  
     length 1.8313  
     axis 0 0 0   XYZ
    dof rx ry rz
    limits (-20.0 45.0)
           (-30.0 30.0)
           (-30.0 30.0)
  end
  begin
     id 17 
     name lclavicle
     direction 0.915958 0.399447 0.0382386  
     length 3.78965  
     axis 0 0 0   XYZ
    dof ry rz
    limits (-20.0 10.0)
           (0.0 20.0)
  end
  begin
     id 18 
     name lhumerus
     direction 1 -4.48967e-011 3.19303e-027   
     length 4.78095   
     axis -180 -30 -90   XYZ
    dof rx ry rz
    limits (-60.0 90.0)
           (-90.0 90.0)
           (-90.0 90.0)
  end
  begin
     id 19
     name lradius
     direction 1 -4.48967e-011 -3.77974e-027   
     length 3.58615   
     axis -180 -30 -90   XYZ
    dof rx
    limits (-10.0 170.0)
  end
  begin
     id 20
     name lwrist
     direction 1 -4.48927e-011 1.2807e-027   
     length 1.79307   
     axis 1.91374e-015 90 90   XYZ
    dof ry
    limits (-180.0 0.0)
 end
  begin
     id 21 
     name lhand
     direction 1 -4.49036e-011 2.5614e-027   
     length 0.659812   
     axis -1.63439e-015 90 90   XYZ
    dof rx rz
    limits (-90.0 90.0)
           (-45.0 45.0)
  end
  begin
     id 22 
     name lfingers
     direction 1 -4.49052e-011 5.1228e-027   
     length 0.531957   
     axis -3.26879e-015 90 90   XYZ
    dof rx
    limits (0.0 90.0)
  end
  begin
     id 23
     name lthumb
     direction 0.707107 -6.35012e-011 0.707107   
     length 0.763787   
     axis -90 45 2.85299e-015   XYZ
    dof rx rz
    limits (-45.0 45.0)
           (-45.0 45.0)
  end
  begin
     id 24 
     name rclavicle
     direction -0.895351 0.435135 0.0948887   
     length 3.70497  
     axis 0 0 0   XYZ 
    dof ry rz
    limits (-10.0 20.0)
           (-20.0 0.0)
  end
  begin
     id 25 
     name rhumerus
     direction -1 -4.48971e-011 2.38946e-027  
     length 4.48913   
     axis -180 30 90   XYZ
    dof rx ry rz
    limits (-90.0 60.0)
           (-90.0 90.0)
           (-90.0 90.0)
  end
  begin
     id 26 
     name rradius
     direction -1 -4.4895e-011 4.38668e-027   
     length 3.7051   
     axis -180 30 90   XYZ
    dof rx
    limits (-10.0 170.0)
  end
  begin
     id 27 
     name rwrist
     direction -1 -4.49007e-011 1.2807e-027   
     length 1.85255   
     axis 1.91374e-015 -90 -90   XYZ
    dof ry
    limits (-180.0 0.0)
  end
  begin
     id 28
     name rhand
     direction -1 -4.48851e-011 2.5614e-027   
     length 0.449136   
     axis -1.63439e-015 -90 -90   XYZ
    dof rx rz
    limits (-90.0 90.0)
           (-45.0 45.0)
  end
  begin
     id 29
     name rfingers
     direction -1 -4.49128e-011 5.1228e-027   
     length 0.362105   
     axis -3.26879e-015 -90 -90   XYZ
    dof rx
    limits (0.0 90.0)
  end
  begin
     id 30
     name rthumb
     direction -0.707107 -6.34851e-011 0.707107   
     length 0.519912   
     axis -90 -45 -2.85299e-015   XYZ
    dof rx rz
    limits (-45.0 45.0)
           (-45.0 45.0)
  end
:hierarchy
  begin
    root lhipjoint rhipjoint lowerback
    lhipjoint lfemur
    lfemur ltibia
    ltibia lfoot
    lfoot ltoes
    rhipjoint rfemur
    rfemur rtibia
    rtibia rfoot
    rfoot rtoes
    lowerback upperback
    upperback thorax
    thorax lowerneck lclavicle rclavicle
    lowerneck upperneck
    upperneck head
    lclavicle lhumerus
    lhumerus lradius
    lradius lwrist
    lwrist lhand lthumb
    lhand lfingers
    rclavicle rhumerus
    rhumerus rradius
    rradius rwrist
    rwrist rhand rthumb
    rhand rfingers
  end

#!OML:ASF I:\Actors\actors\Patient Classification 2\Patient 1\Session 1\actor1.ASF
:FULLY-SPECIFIED
:DEGREES
26
root -0.742954 18.6675 5.90467 0.873743 -5.56807 -5.50711
lowerback 1.18468 0.923509 3.09527
upperback -1.42947 1.3207 1.12138
thorax -2.08811 0.620216 -0.622067
lowerneck -11.6853 0.517322 0.789792
upperneck 22.5046 0.021979 2.20354
head 8.97141 0.306971 0.618164
rclavicle 6.16232e-015 7.95139e-015
rhumerus -47.2126 -4.09937 -86.5252
rradius 39.2138
rwrist 20.8935
rhand -6.02501 -26.7806
rfingers 7.12502
rthumb 19.8083 -55.7912
lclavicle 6.16232e-015 7.95139e-015
lhumerus -41.7444 6.09397 88.1774
lradius 36.7298
lwrist -14.3547
lhand -2.95043 -25.4551
lfingers 7.12502
lthumb 22.7615 3.22216
rfemur 7.36935 -0.696079 19.0853
rtibia 3.18055e-015
rfoot -12.7091 -5.09815
rtoes -8.50817
lfemur -4.72265 -6.59536 -9.36337
ltibia 24.5957
lfoot -24.9316 13.5449
ltoes -54.8127
27
root -0.743192 18.6682 5.90515 0.861544 -5.56378 -5.50423
lowerback 1.17517 0.920331 3.07821
upperback -1.42226 1.31567 1.13149
thorax -2.0761 0.618279 -0.601793
lowerneck -11.6712 0.537721 0.815428
upperneck 22.4976 0.0533373 2.17021
head 8.96613 0.320201 0.605868
rclavicle 3.90115e-015 2.38542e-014
rhumerus -47.2073 -4.08685 -86.5074
rradius 39.225
rwrist 20.8985
rhand -6.046 -26.7204
rfingers 7.12502
rthumb 19.7881 -55.7331
lclavicle 3.90115e-015 2.38542e-014
lhumerus -41.7085 6.1418 88.1819
lradius 36.6946
lwrist -14.4027
lhand -2.93638 -25.4618
lfingers 7.12502
lthumb 22.775 3.21379
rfemur 7.38233 -0.700265 19.0834
rtibia 6.36111e-015
rfoot -12.7024 -5.11849
rtoes -8.8259
lfemur -4.70531 -6.57461 -9.35993
ltibia 24.5931
lfoot -24.9209 13.4964
ltoes -54.7567
28
root -0.743063 18.6683 5.90513 0.853921 -5.5544 -5.51207
lowerback 1.1804 0.910377 3.07555
upperback -1.41925 1.30262 1.13913
thorax -2.07661 0.611885 -0.592179
lowerneck -11.6553 0.555571 0.854399
upperneck 22.4701 0.0792925 2.13416
head 8.95362 0.331523 0.589644
rclavicle -4.46023e-015 1.19271e-014
rhumerus -47.2025 -4.09108 -86.501
rradius 39.2164
rwrist 20.9461
rhand -6.13684 -26.7004
rfingers 7.12502
rthumb 19.7008 -55.7221
lclavicle -4.46023e-015 1.19271e-014
lhumerus -41.6469 6.22105 88.1667
lradius 36.6225
lwrist -14.4559
lhand -2.93821 -25.4117
lfingers 7.12502
lthumb 22.7733 3.26414
rfemur 7.3944 -0.709235 19.09
rtibia 1.11319e-014
rfoot -12.7087 -5.10955
rtoes -8.43534
lfemur -4.6943 -6.60819 -9.35009
ltibia 24.5922
lfoot -24.9697 13.4671
ltoes -54.68
29
root -0.742184 18.6677 5.90429 0.847652 -5.52765 -5.52499
lowerback 1.20382 0.899645 3.10924
upperback -1.42238 1.29001 1.13269
thorax -2.09258 0.604768 -0.617696
lowerneck -11.6527 0.563636 0.880255
upperneck 22.458 0.088781 2.11956
head 8.94898 0.336494 0.581275
rclavicle 8.44835e-015 1.86858e-014
rhumerus -47.2047 -4.11524 -86.5014
rradius 39.2085
rwrist 21.0291
rhand -6.25686 -26.6829
rfingers 7.12502
rthumb 19.5854 -55.7163
lclavicle 8.44835e-015 1.86858e-014
lhumerus -41.6256 6.20453 88.1701
lradius 36.6003
lwrist -14.4495
lhand -2.9799 -25.3471
lfingers 7.12502
lthumb 22.7333 3.33364
rfemur 7.40661 -0.735423 19.1006
rtibia -1.59028e-014
rfoot -12.7282 -5.09933
rtoes -8.10017
lfemur -4.70148 -6.61222 -9.33487
ltibia 24.5936
lfoot -24.9703 13.4588
ltoes -54.7041
30
root -0.741769 18.6671 5.90401 0.844258 -5.51642 -5.52928
lowerback 1.21258 0.894522 3.12353
upperback -1.41982 1.28373 1.12889
thorax -2.09471 0.601369 -0.62953
lowerneck -11.695 0.579743 0.871684
upperneck 22.4928 0.102236 2.15973
head 8.96877 0.346892 0.598314
rclavicle 1.09332e-014 7.95139e-016
rhumerus -47.2005 -4.10507 -86.5074
rradius 39.2273
rwrist 21.0755
rhand -6.27666 -26.7507
rfingers 7.12502
rthumb 19.5664 -55.7861
lclavicle 1.09332e-014 7.95139e-016
lhumerus -41.6402 6.10875 88.2023
lradius 36.6371
lwrist -14.3929
lhand -3.02991 -25.3287
lfingers 7.12502
lthumb 22.6853 3.35787
rfemur 7.41124 -0.746362 19.1026
rtibia -2.06736e-014
rfoot -12.7317 -5.09177
rtoes -8.02825
lfemur -4.70622 -6.56654 -9.3254
ltibia 24.594
lfoot -24.9429 13.4041
ltoes -54.7227
31
root -0.742045 18.6675 5.90359 0.856085 -5.51738 -5.51868
lowerback 1.19637 0.892515 3.10658
upperback -1.4101 1.27964 1.1251
thorax -2.07598 0.599902 -0.623456
lowerneck -11.7528 0.603512 0.889775
upperneck 22.5194 0.125284 2.17986
head 8.98867 0.361938 0.605141
rclavicle 1.38777e-014 1.23246e-014
rhumerus -47.1699 -4.08152 -86.52
rradius 39.2333
rwrist 21.0573
rhand -6.24822 -26.7687
rfingers 7.12502
rthumb 19.5937 -55.8014
lclavicle 1.38777e-014 1.23246e-014
lhumerus -41.6188 6.02276 88.2306
lradius 36.6548
lwrist -14.3226
lhand -3.08707 -25.3783
lfingers 7.12502
lthumb 22.6304 3.31505
rfemur 7.39107 -0.745889 19.0915
rtibia -2.54444e-014
rfoot -12.7182 -5.09134
rtoes -8.09042
lfemur -4.72291 -6.51577 -9.32885
ltibia 24.5908
lfoot -24.905 13.3749
ltoes -54.7645
32
root -0.742105 18.6684 5.90289 0.859792 -5.50668 -5.50211
lowerback 1.18617 0.891202 3.08564
upperback -1.40335 1.27686 1.12778
thorax -2.06386 0.599085 -0.608688
lowerneck -11.7758 0.621082 0.923035
upperneck 22.5171 0.153313 2.13387
head 8.99208 0.373152 0.587095
rclavicle 1.67725e-015 1.27222e-014
rhumerus -47.1581 -4.0603 -86.5085
rradius 39.2373
rwrist 21.0247
rhand -6.27268 -26.7193
rfingers 7.12502
rthumb 19.5702 -55.7544
lclavicle 1.67725e-015 1.27222e-014
lhumerus -41.5603 6.0106 88.2497
lradius 36.6061
lwrist -14.3308
lhand -3.11906 -25.4301
lfingers 7.12502
lthumb 22.5997 3.26697
rfemur 7.38238 -0.757079 19.0766
rtibia 1.43125e-014
rfoot -12.7196 -5.11923
rtoes -8.57614
lfemur -4.73175 -6.53097 -9.34752
ltibia 24.5871
lfoot -24.8837 13.4296
ltoes -54.8319
33
root -0.741696 18.6683 5.90301 0.849862 -5.50291 -5.48251
lowerback 1.18578 0.894807 3.0753
upperback -1.40386 1.28143 1.12666
thorax -2.0642 0.601505 -0.604186
lowerneck -11.7732 0.63079 0.928601
upperneck 22.5191 0.171322 2.11063
head 8.99217 0.379644 0.580256
rclavicle -2.03879e-014 -9.93923e-015
rhumerus -47.1738 -4.06854 -86.4778
rradius 39.2334
rwrist 21.0596
rhand -6.36669 -26.6706
rfingers 7.12502
rthumb 19.4798 -55.7148
lclavicle -2.03879e-014 -9.93923e-015
lhumerus -41.5274 5.98993 88.2719
lradius 36.5724
lwrist -14.3278
lhand -3.08154 -25.3866
lfingers 7.12502
lthumb 22.6357 3.30605
rfemur 7.39173 -0.760938 19.0564
rtibia 3.33958e-014
rfoot -12.7163 -5.14863
rtoes -9.09783
lfemur -4.72234 -6.58597 -9.38129
ltibia 24.5851
lfoot -24.887 13.497
ltoes -54.8448
